<svg width="20" height="18" viewBox="0 0 20 18" fill="none" xmlns="http://www.w3.org/2000/svg">
<path d="M13 17C13 14.7909 10.3137 13 7 13C3.68629 13 1 14.7909 1 17M14.8281 3.17163C15.1996 3.54307 15.4942 3.98402 15.6952 4.46932C15.8962 4.95463 15.9998 5.47469 15.9998 5.99997C15.9998 6.52526 15.8963 7.04543 15.6953 7.53073C15.4943 8.01604 15.1996 8.45702 14.8281 8.82846M17 1C17.6566 1.65661 18.1775 2.43612 18.5328 3.29402C18.8882 4.15192 19.071 5.07134 19.071 5.99993C19.071 6.92851 18.8881 7.84808 18.5327 8.70598C18.1774 9.56388 17.6566 10.3435 17 11.0001M7 10C4.79086 10 3 8.20914 3 6C3 3.79086 4.79086 2 7 2C9.20914 2 11 3.79086 11 6C11 8.20914 9.20914 10 7 10Z" stroke="#0B0B0B" stroke-width="0.7" stroke-linecap="round" stroke-linejoin="round"/>
</svg>
