<svg width="18" height="20" viewBox="0 0 18 20" fill="none" xmlns="http://www.w3.org/2000/svg">
<path d="M1 6.4C0.668629 6.4 0.4 6.66863 0.4 7C0.4 7.33137 0.668629 7.6 1 7.6V6.4ZM17 7.6C17.3314 7.6 17.6 7.33137 17.6 7C17.6 6.66863 17.3314 6.4 17 6.4V7.6ZM2.0918 18.782L2.36419 18.2474L2.0918 18.782ZM1.21799 17.908L0.683383 18.1804H0.683383L1.21799 17.908ZM16.7822 17.908L16.2476 17.6356L16.7822 17.908ZM15.9078 18.782L15.6354 18.2474L15.9078 18.782ZM15.9078 3.21799L16.1802 2.68338L15.9078 3.21799ZM16.7822 4.09204L16.2476 4.36444V4.36444L16.7822 4.09204ZM2.0918 3.21799L2.36419 3.75259L2.0918 3.21799ZM1.21799 4.09204L1.75259 4.36444L1.21799 4.09204ZM12.4243 11.4243C12.6586 11.1899 12.6586 10.8101 12.4243 10.5757C12.1899 10.3414 11.8101 10.3414 11.5757 10.5757L12.4243 11.4243ZM8 15L7.57574 15.4243C7.81005 15.6586 8.18995 15.6586 8.42426 15.4243L8 15ZM6.42426 12.5757C6.18995 12.3414 5.81005 12.3414 5.57574 12.5757C5.34142 12.8101 5.34142 13.1899 5.57574 13.4243L6.42426 12.5757ZM13.6 1C13.6 0.668629 13.3314 0.4 13 0.4C12.6686 0.4 12.4 0.668629 12.4 1H13.6ZM12.4 3C12.4 3.33137 12.6686 3.6 13 3.6C13.3314 3.6 13.6 3.33137 13.6 3H12.4ZM5.6 1C5.6 0.668629 5.33137 0.4 5 0.4C4.66863 0.4 4.4 0.668629 4.4 1H5.6ZM4.4 3C4.4 3.33137 4.66863 3.6 5 3.6C5.33137 3.6 5.6 3.33137 5.6 3H4.4ZM1 7.6H17V6.4H1V7.6ZM4.2002 3.6H13.8002V2.4H4.2002V3.6ZM16.4 6.19995V15.8H17.6V6.19995H16.4ZM13.8002 18.4H4.2002V19.6H13.8002V18.4ZM1.6 15.8V6.19995H0.4V15.8H1.6ZM4.2002 18.4C3.63026 18.4 3.23876 18.3995 2.93525 18.3747C2.6387 18.3505 2.4794 18.3061 2.36419 18.2474L1.8194 19.3166C2.13202 19.4759 2.46686 19.5405 2.83753 19.5707C3.20124 19.6005 3.65003 19.6 4.2002 19.6V18.4ZM0.4 15.8C0.4 16.3501 0.399533 16.7988 0.429241 17.1625C0.45952 17.5331 0.524105 17.8678 0.683383 18.1804L1.75259 17.6356C1.69388 17.5204 1.64947 17.3612 1.62526 17.0647C1.60047 16.7613 1.6 16.3699 1.6 15.8H0.4ZM2.36419 18.2474C2.10086 18.1132 1.88686 17.8992 1.75259 17.6356L0.683383 18.1804C0.932608 18.6696 1.33009 19.0673 1.8194 19.3166L2.36419 18.2474ZM16.4 15.8C16.4 16.37 16.3996 16.7614 16.3748 17.0648C16.3507 17.3613 16.3063 17.5205 16.2476 17.6356L17.3168 18.1804C17.4761 17.8678 17.5407 17.5329 17.5709 17.1624C17.6005 16.7988 17.6 16.35 17.6 15.8H16.4ZM13.8002 19.6C14.3504 19.6 14.799 19.6005 15.1625 19.5707C15.533 19.5404 15.8676 19.4758 16.1802 19.3166L15.6354 18.2474C15.5201 18.3061 15.361 18.3505 15.0647 18.3747C14.7614 18.3995 14.3701 18.4 13.8002 18.4V19.6ZM16.2476 17.6356C16.1136 17.8988 15.8991 18.113 15.6354 18.2474L16.1802 19.3166C16.6691 19.0675 17.0674 18.67 17.3168 18.1804L16.2476 17.6356ZM13.8002 3.6C14.3702 3.6 14.7614 3.60047 15.0647 3.62525C15.361 3.64947 15.5201 3.69386 15.6354 3.75259L16.1802 2.68338C15.8676 2.52413 15.533 2.45953 15.1625 2.42924C14.799 2.39953 14.3503 2.4 13.8002 2.4V3.6ZM17.6 6.19995C17.6 5.64986 17.6005 5.20117 17.5709 4.83762C17.5407 4.46706 17.4761 4.1323 17.3168 3.81965L16.2476 4.36444C16.3063 4.4796 16.3507 4.63875 16.3748 4.93516C16.3996 5.23858 16.4 5.62994 16.4 6.19995H17.6ZM15.6354 3.75259C15.8991 3.88694 16.1135 4.10125 16.2476 4.36444L17.3168 3.81965C17.0674 3.33018 16.6692 2.93253 16.1802 2.68338L15.6354 3.75259ZM4.2002 2.4C3.65004 2.4 3.20125 2.39953 2.83755 2.42924C2.46688 2.45951 2.13203 2.52409 1.8194 2.68338L2.36419 3.75259C2.47939 3.6939 2.63868 3.64948 2.93523 3.62526C3.23875 3.60047 3.63025 3.6 4.2002 3.6V2.4ZM1.6 6.19995C1.6 5.63 1.60047 5.23864 1.62526 4.93525C1.64947 4.63888 1.69387 4.47967 1.75259 4.36444L0.683383 3.81965C0.524112 4.13223 0.459522 4.46693 0.429241 4.83753C0.399533 5.20112 0.4 5.6498 0.4 6.19995H1.6ZM1.8194 2.68338C1.33003 2.93273 0.932575 3.33058 0.683383 3.81965L1.75259 4.36444C1.88689 4.10085 2.10092 3.88673 2.36419 3.75259L1.8194 2.68338ZM11.5757 10.5757L7.57574 14.5757L8.42426 15.4243L12.4243 11.4243L11.5757 10.5757ZM8.42426 14.5757L6.42426 12.5757L5.57574 13.4243L7.57574 15.4243L8.42426 14.5757ZM12.4 1V3H13.6V1H12.4ZM4.4 1V3H5.6V1H4.4Z" fill="#0B0B0B"/>
</svg>
