<svg width="18" height="18" viewBox="0 0 18 18" fill="none" xmlns="http://www.w3.org/2000/svg">
<path d="M1.21799 2.09204L1.66349 2.31904L1.21799 2.09204ZM2.0918 1.21799L2.31879 1.66349L2.0918 1.21799ZM2.0918 16.782L2.31879 16.3365L2.0918 16.782ZM1.21799 15.908L0.772484 16.135H0.772484L1.21799 15.908ZM16.7822 15.908L16.3367 15.681L16.7822 15.908ZM15.9078 16.782L15.6808 16.3365L15.9078 16.782ZM16.7822 2.09204L16.3367 2.31904L16.7822 2.09204ZM15.9078 1.21799L16.1348 0.772484L15.9078 1.21799ZM9 7.5C8.72386 7.5 8.5 7.72386 8.5 8C8.5 8.27614 8.72386 8.5 9 8.5V7.5ZM13 8.5C13.2761 8.5 13.5 8.27614 13.5 8C13.5 7.72386 13.2761 7.5 13 7.5V8.5ZM9 4.5C8.72386 4.5 8.5 4.72386 8.5 5C8.5 5.27614 8.72386 5.5 9 5.5V4.5ZM13 5.5C13.2761 5.5 13.5 5.27614 13.5 5C13.5 4.72386 13.2761 4.5 13 4.5V5.5ZM4.5 17C4.5 17.2761 4.72386 17.5 5 17.5C5.27614 17.5 5.5 17.2761 5.5 17H4.5ZM5.5 1C5.5 0.723858 5.27614 0.5 5 0.5C4.72386 0.5 4.5 0.723858 4.5 1L5.5 1ZM16.5 4.20001V13.8H17.5V4.20001H16.5ZM13.8002 16.5H4.2002V17.5H13.8002V16.5ZM1.5 13.8V4.20001H0.5V13.8H1.5ZM4.2002 1.5H13.8002V0.5H4.2002V1.5ZM1.5 4.20001C1.5 3.63171 1.50039 3.23556 1.52559 2.92714C1.55031 2.62456 1.5964 2.45071 1.66349 2.31904L0.772484 1.86505C0.62159 2.16119 0.558684 2.48128 0.528909 2.8457C0.499611 3.20429 0.5 3.64821 0.5 4.20001H1.5ZM4.2002 0.5C3.64839 0.5 3.20437 0.499611 2.84569 0.528908C2.4812 0.558678 2.16098 0.621575 1.8648 0.772484L2.31879 1.66349C2.45044 1.59641 2.62436 1.55032 2.92709 1.52559C3.23563 1.50039 3.6319 1.5 4.2002 1.5V0.5ZM1.66349 2.31904C1.80737 2.03666 2.03668 1.80723 2.31879 1.66349L1.8648 0.772484C1.39427 1.01223 1.0121 1.39477 0.772484 1.86505L1.66349 2.31904ZM4.2002 16.5C3.6319 16.5 3.23563 16.4996 2.92711 16.4744C2.62438 16.4497 2.45045 16.4036 2.31879 16.3365L1.8648 17.2275C2.16097 17.3784 2.48118 17.4413 2.84568 17.4711C3.20436 17.5004 3.64838 17.5 4.2002 17.5V16.5ZM0.5 13.8C0.5 14.3518 0.499611 14.7957 0.528909 15.1543C0.558684 15.5187 0.621591 15.8388 0.772484 16.135L1.66349 15.681C1.5964 15.5493 1.55031 15.3755 1.52559 15.0729C1.50039 14.7645 1.5 14.3683 1.5 13.8H0.5ZM2.31879 16.3365C2.03666 16.1927 1.80736 15.9633 1.66349 15.681L0.772484 16.135C1.01211 16.6053 1.39429 16.9877 1.8648 17.2275L2.31879 16.3365ZM16.5 13.8C16.5 14.3684 16.4997 14.7645 16.4745 15.073C16.4498 15.3756 16.4038 15.5493 16.3367 15.681L17.2277 16.135C17.3787 15.8388 17.4415 15.5186 17.4712 15.1542C17.5004 14.7957 17.5 14.3518 17.5 13.8H16.5ZM13.8002 17.5C14.352 17.5 14.7958 17.5004 15.1543 17.4711C15.5187 17.4413 15.8387 17.3784 16.1348 17.2275L15.6808 16.3365C15.5491 16.4036 15.3753 16.4497 15.0729 16.4744C14.7645 16.4996 14.3685 16.5 13.8002 16.5V17.5ZM16.3367 15.681C16.193 15.963 15.9633 16.1926 15.6808 16.3365L16.1348 17.2275C16.605 16.9879 16.9879 16.6056 17.2277 16.135L16.3367 15.681ZM17.5 4.20001C17.5 3.64826 17.5004 3.20434 17.4712 2.84578C17.4415 2.48139 17.3787 2.16125 17.2277 1.86505L16.3367 2.31904C16.4038 2.45066 16.4498 2.62445 16.4745 2.92706C16.4997 3.23551 16.5 3.63166 16.5 4.20001H17.5ZM13.8002 1.5C14.3685 1.5 14.7646 1.50039 15.0729 1.52559C15.3753 1.55031 15.5491 1.59638 15.6808 1.66349L16.1348 0.772484C15.8387 0.621604 15.5187 0.558688 15.1543 0.52891C14.7958 0.499611 14.352 0.5 13.8002 0.5V1.5ZM17.2277 1.86505C16.9879 1.39444 16.605 1.01206 16.1348 0.772484L15.6808 1.66349C15.9632 1.8074 16.193 2.037 16.3367 2.31904L17.2277 1.86505ZM9 8.5H13V7.5H9V8.5ZM9 5.5H13V4.5H9V5.5ZM5.5 17L5.5 1L4.5 1L4.5 17H5.5Z" fill="#0B0B0B"/>
</svg>
