<svg width="16" height="20" viewBox="0 0 16 20" fill="none" xmlns="http://www.w3.org/2000/svg">
<path d="M5 15H11M5 12H11M14.9996 7H10.5996C10.0396 7 9.75981 6.99998 9.5459 6.89099C9.35774 6.79512 9.20487 6.64218 9.10899 6.45401C9 6.2401 9 5.96005 9 5.4V1M15 15.8V7.65399C15 7.19048 15.0002 6.95872 14.9502 6.73932C14.9059 6.54475 14.8328 6.35788 14.7332 6.18499C14.6208 5.99002 14.4632 5.81997 14.1483 5.47986L10.9502 2.02588C10.6002 1.64789 10.425 1.45888 10.2168 1.32343C10.0322 1.20337 9.82865 1.11464 9.61515 1.06077C9.37428 1 9.11721 1 8.60207 1H4.2002C3.08009 1 2.51962 1 2.0918 1.21799C1.71547 1.40973 1.40973 1.71572 1.21799 2.09204C1 2.51986 1 3.07991 1 4.20001V15.8C1 16.9201 1 17.4801 1.21799 17.908C1.40973 18.2843 1.71547 18.5902 2.0918 18.782C2.51962 19 3.08009 19 4.2002 19H11.8002C12.9203 19 13.48 19 13.9078 18.782C14.2841 18.5902 14.5905 18.2843 14.7822 17.908C15.0002 17.4801 15 16.9201 15 15.8Z" stroke="#0B0B0B" stroke-width="1.2" stroke-linecap="round" stroke-linejoin="round"/>
</svg>
