<svg width="18" height="18" viewBox="0 0 18 18" fill="none" xmlns="http://www.w3.org/2000/svg">
<path d="M17 14.0001V8.45216V8.45141C17 7.91758 17 7.65052 16.9351 7.40199C16.8775 7.18165 16.7827 6.97269 16.6548 6.78426C16.5104 6.57164 16.3096 6.39575 15.9074 6.04389L11.1074 1.84389C10.3608 1.1906 9.98751 0.864003 9.56738 0.73976C9.19719 0.630285 8.80281 0.630285 8.43262 0.73976C8.01272 0.863935 7.63979 1.19025 6.894 1.84281L6.89278 1.84389L2.09277 6.04389L2.09182 6.04473C1.69032 6.39603 1.48944 6.57181 1.34521 6.78427C1.2173 6.97269 1.12255 7.18165 1.06497 7.40199C1 7.65063 1 7.91782 1 8.45216V14.0001C1 14.932 1 15.3978 1.15224 15.7654C1.35523 16.2554 1.74481 16.6448 2.23486 16.8478C2.60241 17 3.06835 17 4.00023 17C4.93211 17 5.39782 17 5.76537 16.8478C6.25542 16.6448 6.64467 16.2554 6.84766 15.7654C6.9999 15.3978 7 14.9319 7 14V13C7 11.8954 7.89543 11 9 11C10.1046 11 11 11.8954 11 13V14C11 14.9319 11 15.3978 11.1522 15.7654C11.3552 16.2554 11.7448 16.6448 12.2349 16.8478C12.6024 17 13.0683 17 14.0002 17C14.9321 17 15.3978 17 15.7654 16.8478C16.2554 16.6448 16.6447 16.2554 16.8477 15.7654C16.9999 15.3978 17 14.932 17 14.0001Z" stroke="#0B0B0B" stroke-width="1.2" stroke-linecap="round" stroke-linejoin="round"/>
</svg>
